<?xml version="1.0" encoding="utf-8"?>
<!-- Generator: Adobe Illustrator 24.2.0, SVG Export Plug-In . SVG Version: 6.00 Build 0)  -->
<svg version="1.1" id="Layer_1" xmlns="http://www.w3.org/2000/svg" xmlns:xlink="http://www.w3.org/1999/xlink" x="0px" y="0px"
	 viewBox="0 0 900.7 774" style="enable-background:new 0 0 900.7 774;" xml:space="preserve">
<style type="text/css">
	.st0{fill:#010101;}
</style>
<g>
	<path class="st0" d="M823,480.2c1.3-0.8,2.6-1.5,3.3-2.1c13.6-9.5,27.3-19,40.9-28.6c0.8-0.5,1.8-1,2.6-1.5
		c10.3-6.2,19.3-2.6,21.4,9.3c2.1,10,1.5,20.3-2.3,29.8c-2.8,6.9-6.9,13.6-10.3,20.6c-0.5,1-1.3,2.1-2.3,3.3c4.4,0.5,7.7,2.1,10,5.7
		c2.3,3.9,2.6,8.2,1.8,12.6c-1.8,10.8-7.2,19.6-15.2,27c-2.6,2.3-5.1,4.4-8,6.7c7.2,11.8,3.6,23.7-2.1,34.5
		c-8,15.7-19.8,27.8-38.1,31.4c-4.4,0.8-8.7,0-12.9,0c0,4.9-0.3,9.5,0,14.2c1.3,19.3-1.3,38.1-6.9,56.6c-1,3.3-2.3,6.2-5.9,7.5
		c-0.5,0.3-1,1.3-1.3,1.8c-1.8,15.2-12.6,22.1-25,28c-2.1,1-3.6,2.6-5.7,3.6c-2.1,1-3.9,2.3-6.2,3.1c-26.8,8.5-54.3,13.4-82.6,15.4
		c-20.6,1.5-41.2,4.1-62,5.7c-16.2,1.3-32.2,2.1-48.4,2.3c-33.7,0.3-67.7-0.3-101.4-0.5c-39.4-0.3-78.7-0.5-118.4-0.8
		c-34.7-0.3-69.2-0.3-104-0.8c-17.5-0.3-34.7-0.5-52.2-1.5c-12.1-0.8-24.4-2.8-36.5-4.6c-10-1.5-18-7.5-24.7-14.4
		c-20.3-20.6-32.2-45.5-37.1-73.8c-1.5-9.5-4.6-17.5-13.6-23.2c-6.7-4.1-12.6-10.3-14.2-18.8c-0.8-3.9-0.8-7.7-1.3-11.6
		c0-1.5,0-2.8,0-4.4c-0.3,0-0.5-0.3-0.8-0.3c-1,1.3-2.1,2.8-3.3,4.1c-2.6,2.8-5.1,5.4-9.5,4.1c-4.4-1.5-5.1-5.1-5.1-9.3
		c0-12.9,2.6-25.2,6.2-37.6c5.9-19.3,12.4-38.1,17.8-57.4c5.7-20.1,9.8-40.4,11.8-61.2c0.5-5.9-0.3-12.1-0.5-18.3
		c0-1-0.8-2.6-1.8-3.1c-15.4-11.1-25-26.5-33.7-42.7c-9.3-17.5-15.4-35.8-16.2-55.6c0-0.5-0.3-0.8-0.3-1.3c-0.3,0-0.3-0.3-0.5,0
		c-9.8,3.9-17.2-4.4-13.6-16c1.3-4.4,3.9-8.5,5.9-12.6c0.5-1.3,1.5-2.3,2.6-4.1c-2.1,0-3.3,0-4.6,0c-5.9-0.3-10.3-3.6-11.8-8.2
		c-1.3-4.6,0.5-9,5.9-12.4c17.5-11.6,34.5-23.7,48.9-38.6c17.5-18.3,34.2-37.1,51.2-55.6c6.2-6.4,12.4-12.9,18.8-19.6
		c-2.3-1-4.6-1.8-6.7-2.6c-11.8-3.3-19-11.3-23.9-22.1c-7.2-15.4-8.5-31.6-4.4-48.1c9-36.8,32.4-60.2,68.7-70
		c19.3-5.1,36.8,1,51.7,13.6c13.1,10.8,24.2,28,31.1,47.3c47.3-23.9,96.2-20.1,145.9-7.7c1-4.6,1.8-9.5,3.1-14.4
		c4.1-17.2,12.9-31.6,26.5-43.2c19-16.5,40.1-18.8,62.8-8c25.2,12.1,40.1,32.9,47.6,59.2c5.7,20.1,6.4,40.1-2.6,59.4
		c-5.4,11.6-13.1,21.4-24.2,28.6c0.5,0.8,0.8,1.3,1.3,1.8c11.1,10.8,21.9,22.1,33.2,32.4c10.8,9.8,23.9,15.2,37.8,18.8
		c27,6.9,54,13.4,80.8,20.8c19,5.1,38.3,10.5,56.6,17.5c39.9,15.4,64.8,46.1,81.1,84.4c10,24.4,18,49.4,22.4,75.6
		c3.3,19.6,3.6,38.9,2.1,58.7C823.3,473,823.3,476.3,823,480.2z M366.5,353.6c0,0.5-0.3,0.8-0.3,1c5.4,27,10.5,54,12.4,81.6
		c1,14.9,1.3,29.8-1,44.5c-4.1,26.5-18.8,44.3-44.3,53.3c-11.6,4.1-23.4,5.9-35.3,6.7c-6.9,0.5-14.4,1.3-20.8-0.5
		c-7.5-2.3-12.1-0.5-17,4.1c-4.4,3.9-9.8,6.7-13.6,10.8c-7.5,8.2-13.9,17.2-17.5,28c-1.5,4.4-2.6,9-2.3,13.4
		c0.8,9.5,2.6,19,3.6,28.6c0.8,8.7,0.8,17.8-1.8,26.2c-3.9,12.1-13.1,19.6-25.2,20.3c-0.8,0-2.1,1.3-2.3,2.1c-1.5,5.1-5.1,8.2-10,10
		c-8,2.8-16.2,3.3-24.4,2.3c-20.6-2.3-39.6-9.3-57.4-19.6c-1.3-0.8-2.8-1.5-4.4-2.3C109,693,120,717.7,140.4,738
		c5.4,5.4,11.6,10.3,19.8,11.1c14.2,1.8,28,4.1,42.2,4.6c29.1,1,57.9,1.3,87,1.5c70.5,0.8,141,1.5,211.5,2.1
		c26.5,0.3,53.3-0.3,79.8-0.8c12.9-0.3,25.7-1,38.3-2.1c20.3-1.8,40.9-4.1,61.2-5.9c25.2-2.1,49.9-6.2,74.1-13.9
		c1-0.3,1.8-1,2.8-1.5c2.1-1.3,3.6-3.1,5.9-3.6c6.4-2.1,12.6-5.1,17.8-9.3c3.9-3.1,5.9-6.9,6.4-11.8c0.3-1.8,0.3-3.9,1-5.4
		c1-2.1,2.3-4.6,4.1-5.4c2.6-1,3.1-2.8,3.9-5.1c6.9-22.4,6.4-45.5,3.9-68.4c-2.3-21.1-1.8-41.9,1.3-62.8c2.1-13.6,4.6-27,6.4-40.7
		c2.1-17.2,3.9-34.5,5.4-51.5c1.3-16.2,1.3-32.2-0.8-48.4c-2.8-21.6-9-42.2-16-62.8c-6.9-21.1-16.7-40.7-30.4-58.2
		c-9.3-11.8-20.3-21.6-33.5-29.3c-17.8-10.5-36.8-16.7-56.6-21.9c-29.8-7.7-59.7-15.2-89.5-22.9c-5.7-1.5-11.1-3.1-17.5-5.1
		c1.3,1.5,2.1,2.3,2.8,3.3c11.1,14.2,22.4,27.8,32.9,42.2c9.5,13.1,16.7,27.5,19.8,43.5c4.9,24.2,0,47.3-12.6,68.7
		c-1,1.5-2.1,3.1-3.1,4.4c-0.5-0.3-0.8-0.3-1.3-0.5c0.5-2.1,0.5-4.1,1.3-5.9c7.7-17.8,11.1-36.3,7.2-55.6
		c-3.9-18.5-11.3-35.5-22.1-50.9c-17.2-24.7-37.1-47.3-58.9-67.9c-18-16.7-34.7-34.5-51.2-52.7c-0.8-0.8-1.3-2.3-2.1-3.6
		c4.1,2.1,7.2,3.9,10.8,5.1c4.4,1.5,8.7,1.5,12.6-1.8c6.9-5.9,12.9-13.1,17-21.4c7.5-15.2,7.7-31.1,4.1-47.1
		c-5.7-25.2-18.5-45.8-42.5-57.9c-17.5-8.7-34.2-8-49.9,4.4c-16.2,12.9-24.2,30.1-27,50.2c-0.5,3.1,0.8,6.4,1.3,9.5
		c0.3,1.3,1.8,3.6,1.3,3.9c-1.3,1.3-3.1,2.1-4.9,2.3c-1.5,0.3-3.3-0.8-4.9-1c-8-2.3-15.7-5.1-23.7-7.2c-24.4-5.9-49.4-5.9-74.1-3.9
		c-16.2,1.3-31.9,4.4-47.1,10.8c-5.7,2.6-11.3,5.1-18,8.2c0-1.8-0.5-3.6,0-4.6c3.1-4.6,1.5-9.3-0.3-13.4
		c-5.9-13.1-13.9-25.2-25-34.5c-11.6-9.8-25-14.9-40.4-12.1c-30.9,5.7-57.4,32.9-63,64.1c-2.6,14.2-1.5,27.8,4.9,40.7
		c5.9,11.6,15.4,17.8,28.6,17c4.1-0.3,8.2-2.3,12.1-4.1c6.7-2.8,13.1-6.2,19.8-9.3c0.3,0.3,0.5,0.5,0.8,1c-1.5,1.5-2.6,3.3-4.4,4.6
		c-29.1,24.4-54.8,52.5-79.8,81.1c-20.1,22.9-42.5,42.5-67.7,59.2c-0.8,0.5-1.3,1-2.1,1.5c1.3,0.8,2.3,1,3.3,0.8
		c2.6-0.5,5.4-1.3,8-2.3c2.6-0.8,5.1-0.8,6.9,1.3c2.1,2.1,2.6,4.6,1.5,7.2c-1,2.3-2.3,4.4-3.6,6.7c-2.8,4.6-5.9,9-8.7,13.6
		c-1,1.8-1.3,3.9-2.3,6.4c1.3-0.5,1.8-0.8,2.1-0.8c8-3.9,12.4-1.3,13.1,7.7c0.5,5.7,0.8,11.3,1.8,17c2.6,17.8,10,33.5,19.3,48.6
		c7.2,11.8,15.2,22.9,27,30.6c1.8,1,2.8,3.9,3.3,5.9c2.1,9.3,1.8,19,0.5,28.3c-2.8,21.9-7.2,43.7-13.4,64.8c-5.4,18-11.3,36-16.7,54
		c-2.1,7.2-3.3,14.4-4.9,21.9c0.5,0.3,0.8,0.3,1.3,0.5c0.5-0.8,1-1.5,1.5-2.1c2.1-2.1,4.1-4.4,6.4-5.9c3.3-2.1,5.7-0.5,5.9,3.1
		c0.3,4.9,0.3,9.5,0.8,14.4c1,10.5,4.1,20.1,13.4,26.8c1.5,1,2.8,2.6,4.6,3.6c9.8,5.9,19.3,12.1,29.1,17.5c10.5,5.9,22.1,10,34,12.6
		c8.7,2.1,17.5,3.6,26.5,2.1c8.7-1.5,9-1.8,10-10.5c0.8-5.7,5.1-8,10-5.1c3.1,1.8,5.7,1.3,8.2-0.3c5.4-3.3,8.2-8.2,9.3-14.2
		c1.8-9,0.8-17.8-0.3-26.8c-1-7.5-2.6-14.7-2.8-22.1c0-12.6,4.4-23.9,12.1-33.5c5.7-6.7,11.8-13.1,17.8-19.6
		c3.6-3.9,7.7-6.9,11.6-10.5c-2.6-4.1-2.6-4.1-8.2-6.4c-6.2-2.6-8-7.2-4.1-12.9c3.3-4.9,7.5-9.3,11.3-13.6c2.3-2.3,5.1-4.4,8-6.7
		c-6.2-4.4-11.6-5.1-17.2-5.7c-3.1-0.3-5.7-1.3-6.7-4.4c-1.3-3.3,0.3-6.2,2.8-8.2c5.1-3.6,10.3-7.2,15.7-10.5
		c1.8-1.3,3.6-2.1,6.4-3.6c-2.6-1.5-4.1-3.1-6.2-4.1c-6.9-2.8-14.2-4.1-21.9-2.8c-8.2,1.3-14.2,5.4-16.7,13.9
		c-1,3.1-2.1,6.4-3.1,9.5c-4.4,14.4-8.2,29.1-16.2,42.2c-4.1,6.7-8.7,13.4-13.4,20.3c-2.8-3.1-2.3-5.4-1.3-8.2
		c3.9-9.3,7.7-18.3,10.8-27.8c4.6-13.6,8.7-27.3,13.1-40.9c3.6-10.8,11.6-16.7,22.4-19.3c1.8-0.5,3.6-0.8,4.1-0.8
		c0-5.1-0.8-9.8,0-14.4c4.6-25,9.5-49.9,14.4-74.9c0.5-2.3,1-4.4,1.8-6.7c-4.6,0.3-9.3,4.9-13.4-0.8c5.4-2.8,10.5-5.7,16-8.2
		c13.9-6.9,27.3-15.2,42.5-19.3c5.7-1.5,11.1-1.5,16.5,0c6.2,1.8,11.8,4.9,17.2,8.2c13.6,8.2,27.5,16,41.4,23.7
		c2.6,1.5,5.1,2.8,8.5,4.6C375.8,357.7,371.4,354.8,366.5,353.6z M340.6,341c0.3,2.3,0.3,4.1,0.3,5.9c1,9.8,2.3,19.8,3.1,29.6
		c1.3,14.7,2.6,29.3,3.9,44.3c0.5,6.7,1.3,13.1,1.5,19.8c0.3,3.3-1.8,5.4-4.6,5.9c-2.8,0.3-5.1-1.3-5.9-4.6
		c-0.3-0.8-0.3-1.3-0.3-2.1c-0.5-4.9-0.8-10-1.3-15.2c-2.6-28-5.1-55.8-7.7-83.9c-0.3-4.1-1.8-6.4-5.9-8c-9.8-3.9-19-7.2-29.3-1.8
		c-2.3,1.3-3.6,2.1-3.9,4.9c-3.3,24.7-6.9,49.4-10.5,74.1c-0.5,3.6-2.8,5.7-5.9,5.7c-3.1-0.3-4.9-2.6-5.1-6.2c0-0.8,0-1.5,0.3-2.3
		c2.6-18.8,5.4-37.3,8-56.1c0.5-4.4,1.3-8.7,2.3-13.6c-2.6,1-4.4,2.3-6.4,2.6c-6.2,1.3-8.5,4.9-9.5,10.8c-4.4,22.1-9.5,44-13.6,66.1
		c-1.5,8.2-2.1,17-2.8,25.5c4.4,1,8.7,1.8,12.9,3.1c6.4,1.8,11.6,5.4,15.2,11.1c3.3,5.4,2.3,10-3.1,13.1c-2.6,1.5-5.4,2.8-8.2,4.4
		c-1.8,1-3.6,2.3-5.4,3.3c4.6,2.3,9,4.4,12.9,6.9c6.2,4.1,6.7,9,1.3,14.7c-4.9,5.1-9.5,10.3-14.4,15.2c-0.8,0.8-1.5,1.8-2.1,2.6
		c3.9,2.6,6.9,5.1,10.5,7.2c2.3,1.5,4.6,2.8,7.2,3.6c8.5,3.1,17.2,3.1,26,2.1c14.2-1.3,27.8-4.1,40.7-10.8c11.1-5.9,19-14.7,23.2-27
		c3.6-10.8,5.1-21.9,5.1-33.2c0.3-23.9-2.8-47.6-7.2-71c-2.3-12.1-4.9-24.2-7.2-36.3c-0.3-1.8-1-3.9-2.3-4.6
		C348.5,344.6,344.7,343,340.6,341z M808.9,597c0.3,4.4,0.5,9.8,0.8,14.9c0.3,4.1,1.3,5.7,5.7,6.2c6.2,0.8,11.8-0.3,17.2-3.3
		c13.1-8.2,21.9-19.6,25-35c0.8-3.9,0.5-7.5-1.8-10.8c-4.9-6.9-4.1-9.8,2.6-15.2c5.1-4.4,10.3-9,14.4-14.4c2.8-3.6,3.9-8.7,4.9-13.4
		c0.8-3.6-0.5-4.4-4.1-3.6c-2.3,0.5-4.4,1-6.7,1.3c-2.8,0.5-5.4-0.3-6.9-2.8s-1.3-5.1,0.3-7.5c1.3-1.8,2.6-3.3,4.1-5.1
		c7.2-8.7,12.9-18.3,16-29.3c1.8-6.7,2.1-13.4,0.5-20.1c-0.8-3.6-1.8-3.9-4.6-2.1c-2.1,1.3-3.9,2.3-5.7,3.9
		c-15.7,10.8-31.4,21.6-46.8,32.4c-1,0.8-1.5,2.1-1.8,3.3c-2.3,16-4.1,31.9-6.7,47.9C812,561.7,809.4,578.7,808.9,597z"/>
	<path class="st0" d="M432.7,715.1c-1.3,2.3-2.3,4.1-3.6,5.9c-4.1,5.9-10.5,5.1-13.4-1.3c-4.6-10-8.2-20.1-9.5-31.1
		c-2.3-19.6,2.1-37.6,12.6-54c5.1-8,10.5-14.4,15.7-16.7c-0.8,1.5-1.5,3.3-2.6,4.9c-10.8,17.2-17,36-17.5,56.4
		c-0.3,11.3,3.3,24.4,7.7,31.6c1.5-2.8,3.1-5.4,4.9-8c1.8-2.8,3.9-5.4,7.7-4.6c3.6,0.5,4.9,3.3,5.9,6.4c3.1,9.3,7.2,17.5,15.2,23.7
		c0.5,0.5,1,0.8,2.1,1.3c0.3-3.1,0.5-5.7,1-8.2c0.8-3.3,1.5-6.9,2.8-10.3c2.3-6.2,7.5-7.2,12.6-3.3c0.8,0.5,1.5,1,2.6,2.1
		c1.5-4.6,3.3-9,4.6-13.6c1.3-4.4,2.3-9,3.6-13.6c1-3.6,2.8-4.6,6.7-4.4c0,3.6,0,7.2,0,10.8c0,1.5,0.3,3.3,1.3,4.4
		c8.5,10.8,18.3,20.3,29.8,27.5c1.8,1.3,3.9,2.1,5.9,2.6c3.1,1,5.9,1.8,7.2-2.6c0.5-2.1,2.3-2.1,4.4-1.5c11.1,3.9,22.4,7.7,34.5,6.9
		c10-0.5,19.8-2.3,26.2-11.3c3.6-5.1,5.7-11.1,8.5-16.7c0.8-1.5,0.8-3.6,1.3-5.1c0.3-0.3,0.8-0.3,1-0.5c0.8,1.5,2.1,2.8,2.6,4.6
		c2.6,13.4-2.6,23.9-14.7,30.1c-16,8.2-32.7,9-49.7,4.1c-1.3-0.3-2.3-1-3.6-1c-1,0-2.3,0.3-2.8,0.8c-2.8,3.6-6.7,4.1-10.8,3.9
		c-8.2-0.5-15.2-4.1-21.6-9.3c-7.2-5.7-14.2-11.6-21.6-17.8c-0.8,2.1-1.8,4.1-2.6,5.9c-2.6,6.4-8.2,8.7-14.4,5.4
		c-0.5-0.3-1.3-0.5-2.3-1.3c-0.3,2.6-0.8,4.6-1,6.9c-0.3,3.1-0.3,5.9-0.8,9c-0.8,7.2-6.4,10-12.6,6.4c-8.2-4.6-15.2-11.1-19.6-19.6
		C435,719.7,434,717.7,432.7,715.1z"/>
	<path class="st0" d="M208.6,204.1c0.3-13.1,2.6-25.7,6.7-38.1c0.8-2.6,2.1-4.9,3.3-7.2c1.8-3.1,4.6-5.1,8.5-4.9
		c3.9,0.3,6.4,2.8,7.5,6.2c1.3,4.1,2.3,8.2,3.1,12.4c2.6,14.4,2.1,28.8-1,43.2c-0.5,2.3-1.3,4.9-2.6,7.2c-3.3,6.7-6.4,8.2-14.2,7.5
		c-5.9-0.8-8.2-4.9-9.5-9.8c-0.5-1.5-0.8-3.1-1-4.6C209.1,212,208.8,208.2,208.6,204.1z"/>
	<path class="st0" d="M313.3,236c10.8,0,18,2.1,24.4,6.2c9,5.4,12.9,15.7,9.8,27.8c-1,4.4-3.1,8.7-5.9,12.1
		c-14.9,18.5-44.5,18-58.9-1c-7.5-9.8-6.9-22.4,1.5-31.4C293,240.3,304,236.5,313.3,236z M314.6,246.8c-7.2,0.5-15.4,3.3-22.1,9.8
		c-4.9,4.9-5.4,11.3-1.8,17c9.8,14.7,35,14.4,44-0.8c4.9-8.2,4.4-15.7-3.6-21.6C326.9,247.8,321.8,247,314.6,246.8z"/>
	<path class="st0" d="M369.4,182.7c1-8,1.8-16.2,2.8-24.2c0.3-1.3,0.5-2.8,1-3.9c1.3-3.6,2.6-7.7,7.2-7.7c4.9-0.3,10,0.8,12.4,5.9
		c2.3,5.4,4.1,11.1,5.1,16.7c2.1,11.3,2.8,22.6,1,34.2c-0.5,3.1-1.8,6.4-3.3,9.3c-5.1,8-14.7,8-20.1-0.3c-3.6-5.7-4.6-12.1-5.1-18.8
		c-0.3-3.6,0-7.2,0-11.1C369.9,182.7,369.6,182.7,369.4,182.7z"/>
	<path class="st0" d="M488.5,49.7c0-1.5,0.3-2.6,0.3-3.3c0.3-4.4-2.3-6.7-6.4-5.1c-4.1,1.8-8.5,3.9-11.8,6.9
		c-12.1,11.1-18.8,25-20.6,41.2c0,1,0,1.8-0.3,2.8c-0.8,2.8-2.6,4.6-5.7,4.6c-3.1-0.3-5.1-2.3-4.9-5.1c0.3-4.4,0.5-8.7,1.5-12.9
		c3.3-13.1,9.3-25,18.8-35c6.7-6.9,14.4-12.1,24.2-13.4c4.9-0.8,9.3,1.8,10.8,5.9c1.5,4.1,0,9.8-3.3,12.4
		C490.3,48.6,489.5,48.9,488.5,49.7z"/>
	<path class="st0" d="M160.2,136.6c-3.1,3.1-9.5,3.1-14.4,0.3c-4.4-2.6-6.2-7.2-4.9-11.8c1.3-4.4,4.1-7.5,8-9.5
		c2.8-1.5,5.9-2.6,9-3.9c-0.5-0.5-1-1.3-1.5-2.1c-3.3-3.9-6.7-7.5-9.8-11.6c-1.5-2.1-2.8-4.4-3.9-6.9c-2.6-7.2,1.5-13.1,9.3-12.9
		c11.1,0.5,20.3,5.4,27.5,13.6c1.3,1.5,1.8,3.9,2.6,5.9c-0.3,0.3-0.5,0.3-0.8,0.5c-4.6-2.6-9-5.7-13.9-8c-2.8-1.5-5.9-2.8-9-3.9
		c-1.3-0.5-2.8,0.3-4.1,0.3c0.3,1.5,0.3,3.3,1,4.4c1.5,2.6,3.6,4.6,5.7,6.9c2.6,2.8,5.1,5.7,7.5,8.5c1.3,1.5,2.6,3.6,3.1,5.7
		c1,3.6-0.5,5.1-4.1,5.9c-3.9,0.8-8,1.3-11.6,2.6c-2.1,0.8-4.1,2.3-5.7,4.1c-2.6,3.3-1.3,7.5,2.6,9c1.3,0.5,2.6,1,3.9,1.3
		C157.6,136.1,158.9,136.4,160.2,136.6z"/>
	<path class="st0" d="M464.6,100.6c1-1.5,2.1-2.8,2.8-4.4c2.3-4.6,4.6-9.3,6.4-13.9c1-2.3,1.5-5.7-1-6.7c-2.1-1-5.1-0.8-7.5,0
		c-3.3,1.3-6.2,3.9-9.3,5.9c-1.8-2.6-1.5-5.4,0.5-6.9c4.9-3.6,9.8-7.2,14.9-10c3.6-2.1,7.5-1.5,10.5,1.3c3.1,2.8,3.1,6.4,1.8,10.3
		s-3.1,7.5-4.6,11.1c2.8,0,5.4-0.3,8,0c7.2,1,11.1,6.4,10.3,13.6c-0.8,7.5-9.3,17.2-16.2,19.3c-1.5,0.5-3.1,0.3-4.6-0.3
		c3.3-2.6,6.4-5.4,9.8-8c2.6-2.1,4.1-4.6,3.9-8c-0.3-4.6-3.1-7.2-7.7-6.4c-3.6,0.8-7.2,2.1-10.8,3.3
		C469.7,102.2,467.2,102.7,464.6,100.6z"/>
	<path class="st0" d="M644.7,416.6c0-4.9,0.3-9.5,0-14.2c0-1.8-1-3.9-1.5-5.7c-1-3.1,0-4.6,3.1-4.9c1.5,0,3.1,0.3,4.4,0.5
		c3.1,1,4.6-0.5,4.6-3.1c0-3.3-0.5-6.7-1.8-9.8c-4.4-10.5-8.7-21.1-17.8-29.1c2.1-2.8,4.6-3.1,7.5-1.8c1.8,0.8,3.3,2.1,4.6,3.3
		c7.7,6.9,13.1,15.7,16.5,25.5c0.8,2.3,1.3,4.9,1.5,7.5c0.8,11.3-2.1,16-12.9,19.6C651.1,415.6,649.1,418.1,644.7,416.6z"/>
	<path class="st0" d="M155.8,46.3c3.3,1,6.9,1.8,10.3,3.3c18.5,9,30.6,23.2,34,44c0.3,1.5,0.3,3.1,0,4.4c-0.3,2.8-2.1,4.6-4.9,4.9
		c-2.8,0.3-4.9-1.3-5.4-4.1c-0.5-2.3-0.5-4.9-1.3-7.5c-3.1-12.1-8.7-22.9-17.5-31.9c-3.3-3.3-7.5-5.4-11.3-8.2
		c-1.5-1.3-3.3-2.3-4.9-3.6C155.3,47.4,155.5,46.8,155.8,46.3z"/>
	<path class="st0" d="M672,347.6c-8.5-4.6-16.7-7.2-25.5-9c-0.8-0.3-1.5-1.5-1.5-2.6c-0.3-2.8,2.3-5.1,5.4-5.1
		c5.9,0,18.5,8,21.1,13.4C671.5,345.3,671.5,346.1,672,347.6z"/>
	<path class="st0" d="M339.3,470.6c-0.3-1.5-0.3-2.8-0.5-4.4c-0.3-3.3,1.3-5.7,3.9-6.2c3.1-0.5,5.7,0.8,6.2,3.6
		c0.8,3.3,1,6.9,0.5,10.3c-0.3,3.1-2.6,4.9-5.9,4.6c-2.8-0.3-4.6-2.6-4.6-6.2C339.3,471.7,339.3,471.2,339.3,470.6L339.3,470.6z"/>
	<path class="st0" d="M340.8,495.3c-2.8,0-4.9-2.3-4.9-4.9c0-2.6,2.1-4.9,4.9-4.9c2.8,0,5.1,2.1,5.1,4.9
		C346,493,343.6,495.3,340.8,495.3z"/>
</g>
</svg>
